<svg xmlns="http://www.w3.org/2000/svg" viewBox="0 0 235.59 117"><defs><style>.cls-1{fill:none;}.cls-2{fill:#fff;}.cls-3{fill:#28beeb;}</style></defs><g id="書き出し用"><rect class="cls-1" width="235.59" height="117"/><path class="cls-2" d="M42,74.23a.4.4,0,0,0,.12.33L62.22,94.68C64.76,97.22,76.43,85.56,73.88,83L53.79,62.92a.43.43,0,0,0-.32-.12c-.84.06-3.18.62-7,4.46S42.06,73.47,42,74.23Z"/><path class="cls-2" d="M47.51,44.09c0-.72-.41-3.09-4.46-7.14-3.4-3.4-5.67-4.23-6.67-4.43a.47.47,0,0,0-.42.13,25.28,25.28,0,0,0,0,35.76l2.87,2.87a.21.21,0,0,0,.35-.06,21.61,21.61,0,0,1,4.75-6.49A21.57,21.57,0,0,1,50.43,60a.21.21,0,0,0,.06-.35l-2.87-2.87A8.79,8.79,0,0,1,47,45C47.31,44.61,47.51,44.4,47.51,44.09Z"/><path class="cls-3" d="M73.37,57.33h-.14a12.85,12.85,0,0,1-8.56-4.64.42.42,0,0,0-.66,0,10,10,0,0,1-.75.86l-5.58,5.57a1.39,1.39,0,0,0,0,2l9.72,9.72a1.39,1.39,0,0,0,1.95,0l4.27-4.28c3-3,6-6.66,6.82-9.59a.42.42,0,0,0-.54-.53A14.58,14.58,0,0,1,73.37,57.33Z"/><path class="cls-2" d="M73.67,53.77c3.74.22,6-1,7.33-2.28a4.83,4.83,0,0,0,1.25-2.26A25.26,25.26,0,0,0,39.12,29.49c-.15.15,0,.18,0,.19a21.91,21.91,0,0,1,6.46,4.74,21.25,21.25,0,0,1,4.82,6.64c.13.26.24.19.6-.11a9,9,0,0,1,11.8-.27,8.74,8.74,0,0,1,3,5.86,5.82,5.82,0,0,0,.38,1.71A10.78,10.78,0,0,0,67.11,50,9,9,0,0,0,73.67,53.77Z"/><path class="cls-2" d="M107.5,42.87a5.58,5.58,0,0,0-1.83-1.4,10,10,0,0,0-2.38-.81,17.36,17.36,0,0,0-2.5-.37c-.82,0-1.65-.08-2.51-.08h-9V72.36h7.54V59.84c.52,0,1.19,0,2,0a33.57,33.57,0,0,0,3.66-.17,8.76,8.76,0,0,0,2.81-.82,5.93,5.93,0,0,0,2.08-1.52,7.41,7.41,0,0,0,1.31-2.18,12.23,12.23,0,0,0,.66-2.53,18.55,18.55,0,0,0,.2-2.73,16.38,16.38,0,0,0-.43-3.92A7.2,7.2,0,0,0,107.5,42.87Zm-5.64,8.93a3.12,3.12,0,0,1-.75,1.44,3.16,3.16,0,0,1-1.48.66,11.05,11.05,0,0,1-2.08.16h-.69V46h.82a10.86,10.86,0,0,1,3,.26,2,2,0,0,1,1.13,1.42,8.6,8.6,0,0,1,.28,2.31A8,8,0,0,1,101.86,51.8Z"/><path class="cls-2" d="M112.6,51.82V72.36h6.81V51.82A10.33,10.33,0,0,0,112.6,51.82Z"/><path class="cls-2" d="M112.6,48.88a11.15,11.15,0,0,1,6.81,0V40.21H112.6Z"/><path class="cls-2" d="M139.74,50.28a5.33,5.33,0,0,0-1.8-1.91,5.16,5.16,0,0,0-2.77-.7,6.32,6.32,0,0,0-5.57,3.6h-.09V48.35h-6.34V80.46H130V70.09h.09a6.82,6.82,0,0,0,2.44,2.31,5.25,5.25,0,0,0,5.51-.1,5.38,5.38,0,0,0,1.82-2.08,9.92,9.92,0,0,0,.9-2.79,19.14,19.14,0,0,0,.26-3.21V55.9a14.64,14.64,0,0,0-.3-3A9.45,9.45,0,0,0,139.74,50.28ZM134.18,63.4c0,.6,0,1.13,0,1.59a4.21,4.21,0,0,1-.26,1.26,2.11,2.11,0,0,1-.64.94,1.7,1.7,0,0,1-1.16.37,1.68,1.68,0,0,1-1.63-1.29,9.21,9.21,0,0,1-.47-3.13V57.48a8.34,8.34,0,0,1,.47-3.1,1.75,1.75,0,0,1,1.76-1.14,1.5,1.5,0,0,1,1.09.39,2.19,2.19,0,0,1,.61,1,5.65,5.65,0,0,1,.23,1.2c0,.4,0,.86,0,1.37Z"/><path class="cls-2" d="M159.2,49.25a9.37,9.37,0,0,0-2.89-1.2,15.93,15.93,0,0,0-3.56-.38,14.28,14.28,0,0,0-3.73.45,7.89,7.89,0,0,0-2.88,1.39A6.35,6.35,0,0,0,144.26,52a9.65,9.65,0,0,0-.69,3.86v9.77a7.66,7.66,0,0,0,.71,3.41,6.15,6.15,0,0,0,2,2.34,8.64,8.64,0,0,0,2.92,1.31,15,15,0,0,0,3.58.4c2.88,0,5.1-.73,6.64-2.1s2.32-4,2.32-6.71c0,0-.05-.42-.05-.57a17.82,17.82,0,0,0-6.67-.23,8.1,8.1,0,0,1-.59,3.83c-.27.57-.91.85-1.91.85a2,2,0,0,1-1.59-.75,3,3,0,0,1-.51-1.78V61.62a34.51,34.51,0,0,1,11.53-.15V54.61a6.56,6.56,0,0,0-.73-3.19A5.85,5.85,0,0,0,159.2,49.25Zm-8.81,7.33v-1.2a4.49,4.49,0,0,1,.53-2.33,2.39,2.39,0,0,1,3.63-.09,2.85,2.85,0,0,1,.56,1.65v1.67A21.18,21.18,0,0,0,150.39,56.58Z"/><path class="cls-3" d="M177.63,58.07v4.65a14.72,14.72,0,0,1-.08,1.67,5.1,5.1,0,0,1-.37,1.43,2.56,2.56,0,0,1-.85,1.1,2.47,2.47,0,0,1-1.48.43,2.63,2.63,0,0,1-2.06-.73,3.16,3.16,0,0,1-.64-2.15l0-15.9a4.18,4.18,0,0,1,.62-2.53,2.73,2.73,0,0,1,2.3-.82,2,2,0,0,1,1.75,1.08c.43.71.65,3.47.65,4.82l.12,3.21a10.68,10.68,0,0,1,7.42,0V50.47c0-3.2-.88-7.28-2.66-8.78s-4.31-2.25-7.63-2.25-6,.83-7.65,2.5-2.47,4.26-2.47,7.74V62.89q0,5.06,2.3,7.65t7.35,2.59c3.72,0,6.46-.83,8.23-2.51a9,9,0,0,0,2.66-6.88l-.13-5.67A8.19,8.19,0,0,0,177.63,58.07Z"/><path class="cls-3" d="M207.3,44.88a5.75,5.75,0,0,0-2.7-3.17,9.81,9.81,0,0,0-3.69-1.22,35.47,35.47,0,0,0-4.8-.28h-8.19V72.36h10.16a20.48,20.48,0,0,0,3.69-.3,8,8,0,0,0,3-1.2c2.12-1.31,3.19-3.63,3.22-6.94V49.64A14.71,14.71,0,0,0,207.3,44.88Zm-7.59,20.71c-.51.68-1.58,1-3.21,1a3.43,3.43,0,0,1-.47-.05h-.56V46a21,21,0,0,1,2.46.18,3.23,3.23,0,0,1,1.44.51,2.27,2.27,0,0,1,.82,1.18,7.53,7.53,0,0,1,.25,2.21V61.43a6.29,6.29,0,0,1,0,.73A5.81,5.81,0,0,1,199.71,65.59Z"/></g></svg>
