<svg id="Layer_1" data-name="Layer 1" xmlns="http://www.w3.org/2000/svg" xmlns:xlink="http://www.w3.org/1999/xlink" viewBox="0 0 496.11 481.42"><defs><style>.cls-1{fill:url(#_ÂÁ_Ï_ÌÌ_È_ËÂÌÚ_195);}.cls-2{fill:#fff;}</style><linearGradient id="_ÂÁ_Ï_ÌÌ_È_ËÂÌÚ_195" x1="72.02" y1="115.29" x2="455.73" y2="429.76" gradientUnits="userSpaceOnUse"><stop offset="0" stop-color="#0effd4"/><stop offset="1" stop-color="#0076d0"/></linearGradient></defs><title>KapetaniosIcon-RGB</title><path class="cls-1" d="M254.23,15.62a33.19,33.19,0,0,0-12.64,3.2L69.1,101.23a33.29,33.29,0,0,0-17.85,22.2L8.69,308.56a33,33,0,0,0,4.48,25.08,30.14,30.14,0,0,0,1.88,2.6L134.44,484.69A33.61,33.61,0,0,0,160.23,497l191.46,0a33.63,33.63,0,0,0,25.79-12.29L496.83,336.2a33,33,0,0,0,6.37-27.69L460.58,123.38a33.31,33.31,0,0,0-17.84-22.19L270.22,18.82A33.28,33.28,0,0,0,254.23,15.62Z" transform="translate(-7.89 -15.58)"/><path class="cls-2" d="M256.4,273.21a50.32,50.32,0,1,0-50.32-50.32A50.37,50.37,0,0,0,256.4,273.21ZM223.06,218.3a8.35,8.35,0,0,1,8.34,8.34c0,1.67,6,5.9,16.67,7.55V210a8.34,8.34,0,1,1,0-16.67,8.34,8.34,0,0,1,16.67,0,8.34,8.34,0,0,1,0,16.67v24.22c10.67-1.65,16.67-5.88,16.67-7.55a8.34,8.34,0,1,1,16.67,0c0,14.25-17.92,25-41.68,25s-41.67-10.75-41.67-25A8.34,8.34,0,0,1,223.06,218.3Z" transform="translate(-7.89 -15.58)"/><path class="cls-2" d="M256.4,151.63c-35.29,0-191.69,39.49-191.69,83.34,0,20.51,17.82,40.11,50,55.66V310a8.34,8.34,0,0,0,.69,3.3c1.21,2.81,3.63,5.2,6.63,7.36-.3.89-.42,1.49-.77,2.54-4.35,12.93-12.45,37,2.82,58.29,17.8,24.8,61.09,36.86,132.32,36.86s114.54-12,132.32-36.66c15.22-21.1,7.2-45.19,2.9-58.13-.38-1.13-.51-1.8-.83-2.75,2.88-2.16,5.27-4.53,6.55-7.36a8.45,8.45,0,0,0,.75-3.44V290.93c32.19-15.48,50-35.19,50-55.94C448.1,191.12,291.69,151.63,256.4,151.63Zm0,13.75a57.51,57.51,0,1,1-57.51,57.51A57.51,57.51,0,0,1,256.4,165.38Zm125,142.19c-10.37,11.07-88.83,10.88-115,10.77l-10,0h-6.67c-26.83,0-107.55.13-118.35-10.79V292.37a1134.49,1134.49,0,0,1,125-7.39,1123.91,1123.91,0,0,1,125,7.37Z" transform="translate(-7.89 -15.58)"/></svg>